<?xml version="1.0" encoding="utf-8"?>
<!-- Generator: Adobe Illustrator 28.0.0, SVG Export Plug-In . SVG Version: 6.00 Build 0)  -->
<svg version="1.1" id="Layer_1" xmlns="http://www.w3.org/2000/svg" xmlns:xlink="http://www.w3.org/1999/xlink" x="0px" y="0px"
	 viewBox="0 0 2500 619" style="enable-background:new 0 0 2500 619;" xml:space="preserve">
<style type="text/css">
	.st0{fill-rule:evenodd;clip-rule:evenodd;fill:#F8981D;}
	.st1{fill-rule:evenodd;clip-rule:evenodd;fill:#231F20;}
</style>
<path class="st0" d="M1249.7,504.3C1148.3,579.2,1001.2,619,874.6,619c-177.5,0-337.3-65.6-458.2-174.8c-9.5-8.6-1-20.3,10.4-13.7
	c130.5,75.9,291.8,121.7,458.5,121.7c112.4,0,236-23.4,349.7-71.6c17.2-7.3,31.5,11.3,14.8,23.7H1249.7z"/>
<path class="st0" d="M1291.9,456.2c-13-16.6-85.7-7.9-118.5-4c-9.9,1.2-11.5-7.5-2.5-13.7c58-40.8,153.2-29,164.2-15.4
	c11.2,13.8-2.9,109.2-57.3,154.7c-8.4,7-16.3,3.2-12.6-6C1277.5,541.2,1304.9,472.7,1291.9,456.2L1291.9,456.2z"/>
<path class="st1" d="M1175.7,150.4v-39.7c0-6,4.6-10.1,10.1-10.1h177.6c5.7,0,10.2,4.1,10.2,10v34c0,5.7-4.8,13.1-13.4,24.9
	l-92,131.3c34.1-0.8,70.3,4.3,101.3,21.8c7,3.9,8.9,9.7,9.4,15.4v42.3c0,5.8-6.4,12.6-13.1,9.1c-54.7-28.6-127.2-31.7-187.7,0.4
	c-6.2,3.3-12.6-3.4-12.6-9.2v-40.2c0-6.4,0.1-17.4,6.6-27.2l106.6-152.9h-92.8c-5.7,0-10.2-4-10.2-10L1175.7,150.4z"/>
<path class="st1" d="M527.9,397.9h-54.1c-5.1-0.3-9.3-4.2-9.7-9.1V111.4c0-5.6,4.7-10,10.5-10H525c5.3,0.2,9.5,4.2,9.8,9.3V147h1
	c13.1-35,37.8-51.4,71.1-51.4c33.3,0,55,16.4,70.1,51.4c13.1-35,42.8-51.4,74.6-51.4c22.7,0,47.4,9.3,62.5,30.3
	c17.2,23.4,13.6,57.2,13.6,87v175c0,5.5-4.7,10-10.5,10h-54c-5.4-0.4-9.7-4.7-9.7-9.9v-147c0-11.6,1-40.9-1.5-51.9
	c-4-18.7-16.1-23.9-31.7-23.9c-13.1,0-26.7,8.8-32.3,22.7c-5.6,14-5,37.3-5,53.1v147c0,5.5-4.7,10-10.4,10h-54
	c-5.4-0.4-9.7-4.7-9.7-9.9v-147c0-30.9,5-76.4-33.3-76.4s-37.3,44.4-37.3,76.4v147C538.3,393.4,533.6,397.9,527.9,397.9L527.9,397.9
	z"/>
<path class="st1" d="M1526.5,95.6L1526.5,95.6c-78.1,0.1-121.5,67.8-121.5,153.5s45.9,154.6,121.5,154.6s123.6-64.2,123.6-151.7
	S1606.7,95.6,1526.5,95.6z M1526.5,346.6c-42.3,0-41.9-72.3-41.9-106.2s2.5-88.1,42.3-88.1c17.2,0,29.2,7.6,35.3,26.8
	c7.1,22.2,8.1,50.2,8.1,73.5C1570.4,288.2,1568.9,346.6,1526.5,346.6z"/>
<path class="st1" d="M1754.1,397.9h-53.8c-5.4-0.4-9.7-4.7-9.7-9.9V110.5c0.4-5.1,4.8-9.1,10.3-9.1h50.1c4.7,0.2,8.6,3.4,9.6,7.8
	v42.4h1c15.1-37.9,36.3-56,73.6-56c24.2,0,47.9,8.8,63.1,32.7c14.1,22.2,14.1,59.5,14.1,86.4v174.5c-0.6,4.9-5,8.8-10.4,8.8h-54.2
	c-5-0.3-9-4-9.6-8.8V238.5c0-30.3,3.6-74.7-33.8-74.7c-13.1,0-25.3,8.8-31.3,22.2c-7.5,16.9-8.6,33.8-8.6,52.5v149.3
	C1764.6,393.3,1759.9,397.8,1754.1,397.9L1754.1,397.9z"/>
<ellipse class="st1" cx="1972.8" cy="375.9" rx="26.6" ry="25.3"/>
<path class="st1" d="M1130.4,347.1c-9.9-13.7-20.4-24.8-20.4-50.1v-84.1c0-35.7,2.5-68.4-23.8-93c-20.7-19.9-55.1-26.9-81.4-26.9
	C953.4,93,896,112.2,884,175.8c-1.2,6.7,3.7,10.3,8.1,11.3l52.3,5.6c4.9-0.2,8.5-5.1,9.4-9.9c4.5-21.9,22.9-32.4,43.5-32.4
	c11.2,0,23.8,4.1,30.3,14c7.6,11.1,6.6,26.3,6.6,39.2v7c-31.4,3.5-72.3,5.8-101.6,18.7c-33.8,14.6-57.6,44.4-57.6,88.3
	c0,56.1,35.4,84.2,80.9,84.2c38.4,0,59.4-9.1,89.1-39.3c9.8,14.2,13,21.1,30.9,36c4,2.1,9.2,1.9,12.7-1.3v0.1l0.1,0.1
	c10.8-9.6,30.4-26.7,41.4-35.9C1134.6,357.9,1133.8,352,1130.4,347.1z M1024,322.7c-8.6,15.2-22.2,24.6-37.4,24.6
	c-20.7,0-32.8-15.8-32.8-39.2c0-46,41.3-54.4,80.3-54.4v11.6C1034.1,286.5,1034.6,304,1024,322.7z"/>
<path class="st1" d="M422.1,347.1c-9.9-13.7-20.4-24.8-20.4-50.1v-84.1c0-35.7,2.5-68.4-23.8-93C357.2,100,322.8,93,296.6,93
	c-51.4,0-108.8,19.2-120.8,82.7c-1.2,6.7,3.7,10.3,8.1,11.3l52.3,5.6c4.9-0.2,8.5-5.1,9.4-9.9c4.5-21.9,22.9-32.4,43.5-32.4
	c11.2,0,23.8,4.1,30.3,14c7.5,11.1,6.6,26.3,6.6,39.2v7c-31.4,3.5-72.3,5.8-101.6,18.7c-33.8,14.6-57.6,44.4-57.6,88.3
	c0,56.1,35.4,84.2,80.9,84.2c38.4,0,59.4-9.1,89.1-39.3c9.8,14.2,13,21.1,30.9,36c4,2.1,9.2,1.9,12.7-1.3l0.1,0.1l0.1,0.1
	c10.8-9.6,30.4-26.7,41.4-35.9C426.4,357.9,425.6,352,422.1,347.1z M315.7,322.7c-8.6,15.2-22.2,24.6-37.4,24.6
	c-20.7,0-32.8-15.8-32.8-39.2c0-46,41.3-54.4,80.3-54.4v11.6C325.9,286.5,326.3,304,315.7,322.7z"/>
<path class="st1" d="M2077.1,265.6h9.6c2.1,0,4.1,1.8,4.1,3.8v18.4c6.7-14.4,17.6-24.8,34.4-24.8c13.1,0,22.9,4.7,30,14.8
	c7.6,10.9,9,26,9,39.6V394c0,2-2.1,3.8-4.1,3.8h-11.2c-2.1,0-4.1-1.8-4.1-3.8v-76.6c0-7.6-0.5-17.4-3.8-24.2
	c-3.2-7-10.5-12.5-17.5-12.5c-7.2,0-16.5,5.3-22.3,13.5c-6.9,9.9-8.7,20.8-8.7,33.3v66.6c0,1.9-2.1,3.7-4.1,3.7h-11.2
	c-2.1,0-4.2-1.9-4.1-3.8V269.4C2073,267.4,2075,265.6,2077.1,265.6L2077.1,265.6z"/>
<ellipse class="st1" cx="2039.8" cy="231.5" rx="12" ry="11.4"/>
<path class="st1" d="M2045.5,397.8h-11.4c-2.1,0-4.1-1.8-4.1-3.8L2030,270c0-2,2.1-3.8,4.1-3.8h11.3c2.1,0,4.1,1.8,4.1,3.8v124.1
	C2049.6,396.1,2047.5,397.8,2045.5,397.8L2045.5,397.8z"/>
</svg>
